<?xml version="1.0" encoding="UTF-8"?>
<svg id="Layer_1" data-name="Layer 1" xmlns="http://www.w3.org/2000/svg" viewBox="0 0 960 960">
  <defs>
    <style>
      .cls-1 {
        fill: #1b127b;
        stroke-width: 0px;
      }
    </style>
  </defs>
  <g id="g3211">
    <path id="path3798" class="cls-1" d="M129,373.46c-58.86,0-106.58,47.72-106.58,106.58s47.72,106.58,106.58,106.58,106.58-47.72,106.58-106.58-47.72-106.58-106.58-106.58h0ZM129,383.2c53.48,0,96.84,43.36,96.84,96.84s-43.36,96.84-96.84,96.84-96.84-43.36-96.84-96.84,43.36-96.84,96.84-96.84h0Z"/>
    <path id="path2998" class="cls-1" d="M206.7,477.87l-21.99,5.89h-113.01v-2.87h-14.9v2.87h-3.33l3.9,8.6h17.76c10.43,19.38,31.19,32.79,54.74,32.79,16.35,0,31.21-6.34,42.26-16.71,11.32.33,18.62-3.65,23.8-9.03,8.68-9,10.76-21.54,10.76-21.54h0ZM199.77,484.19c-5.42,14.76-15.76,18.61-23.17,19.59,4.19-4.83,7.64-10.32,10.17-16.3l13-3.29Z"/>
    <path id="path3012" class="cls-1" d="M58.38,467.07c0-6.66,5.37-20.41,5.37-20.41,0,0,5.37,13.75,5.37,20.41s-2.51,8.02-5.37,8.02-5.37-1.36-5.37-8.02Z"/>
    <path id="rect3786" class="cls-1" d="M94.78,468.89l2.42,5.14h65.99l2.17-5.14h-70.57ZM98.27,476.32l2.42,5.14h59.38l2.15-5.14h-63.95Z"/>
    <path id="path3794" class="cls-1" d="M129.5,464.42c-.72-11.25,11.46-26.22,11.46-26.22-15.4,6.3-17.51,12.39-17.51,17.51s6.05,8.7,6.05,8.7Z"/>
  </g>
  <g id="g3174">
    <path id="path3026" class="cls-1" d="M337.25,423.52h-22.33v62.82h-9.77v-62.82h-22.23v-6.98h54.34v6.98"/>
    <path id="path3028" class="cls-1" d="M373.12,486.33h-9.67c-.66-1.79-1.03-2.89-1.1-3.29-.2-.86-.33-2.26-.4-4.19-4.25,5.78-9.64,8.67-16.15,8.67-3.99,0-7.31-1.3-9.97-3.89s-3.99-5.98-3.99-10.17c0-6.25,3.42-12.57,10.27-16.09,3.32-1.66,6.86-3.23,11.18-4.43,3.19-.86,6.56-1.78,8.95-2.18-.8-7.71-4.67-9.7-11.05-9.7-4.12,0-8.34,1.79-12.66,5.38l-3.49-4.49c4.85-4.45,10.77-6.68,17.75-6.68,7.05,0,12.06,2.09,15.06,6.28,1.2,1.73,1.99,3.39,2.39,4.99.47,1.99.7,5.12.7,9.37v14.46c0,4.52.13,7.74.4,9.67.27,1.86.86,3.96,1.79,6.28M362.25,463.4l.47-5.46c-.2,0-3.34,0-7.13.87-10.04,2.26-14.48,7.42-14.48,13.47,0,2.53.7,4.55,2.09,6.08,1.46,1.46,3.32,2.19,5.58,2.19,3.12,0,5.88-1.06,8.28-3.19,1.99-1.79,3.32-3.82,3.99-6.08.86-2.86,1.26-5.48,1.2-7.88"/>
    <path id="path3030" class="cls-1" d="M425.01,437.47l-24.93,56.23c-2.79,6.31-5.48,10.64-8.08,12.96-3.46,3.06-8.24,4.59-14.36,4.59h-2.09v-6.68h2.19c3.46,0,6.05-.47,7.78-1.4,1.73-.86,3.36-2.59,4.89-5.18,1-1.66,3.32-6.48,6.98-14.46l-20.24-45.47,8.77-2.39,15.35,38.59,16.35-38.59,7.38,1.79"/>
    <path id="path3032" class="cls-1" d="M441.83,486.33h-8.97v-73.19h8.97v73.19"/>
    <path id="path3034" class="cls-1" d="M502.2,461.01c0,7.71-2.29,14.06-6.88,19.04-4.52,4.99-10.34,7.48-17.45,7.48s-13.06-2.46-17.65-7.38c-4.59-4.92-6.88-11.27-6.88-19.04s2.29-13.86,6.88-18.65c4.59-4.79,10.54-7.18,17.85-7.18,6.85,0,12.56,2.46,17.15,7.38,4.65,4.92,6.98,11.03,6.98,18.35M492.63,461.01c0-6.05-1.36-10.8-4.09-14.26-2.66-3.46-6.31-5.18-10.97-5.18-4.52,0-8.11,1.76-10.77,5.28-2.59,3.46-3.89,8.21-3.89,14.26,0,6.38,1.3,11.33,3.89,14.86,2.66,3.52,6.38,5.28,11.17,5.28s8.18-1.79,10.77-5.38c2.59-3.59,3.89-8.54,3.89-14.86"/>
    <path id="path3036" class="cls-1" d="M540.15,440.27l-4.29,6.08c-3.32-1.66-5.55-2.49-6.68-2.49-3.39,0-5.72,2.06-6.98,6.18-.86,2.86-1.3,7.08-1.3,12.66v23.63h-8.97v-49.85h8.97v6.98l2.09-3.19c2.19-3.32,4.92-4.99,8.18-4.99,2.73,0,5.72,1.66,8.97,4.99"/>
    <path id="path3039" class="cls-1" d="M587.91,415.06c-5.25,0-9.68,1.5-13.27,4.49-3.52,2.92-5.28,6.61-5.28,11.07,0,4.99,3.03,10.16,9.08,15.54-9.97,5.25-14.97,11.97-14.97,20.15,0,6.05,2.31,11.07,6.89,15.06,4.65,3.92,10.46,5.87,17.44,5.87,9.57,0,17.35-3.48,23.33-10.46l11.37,10.46,8.86-4.58-15.35-12.96c2.19-4.52,3.29-9.04,3.29-13.56,0-2.3-.27-4.5-.79-6.61h-7.61c.87,2.61,1.31,5.32,1.31,8.11,0,2.59-.49,5.01-1.49,7.27l-21.24-19.64c-6.91-6.38-10.37-11.47-10.37-15.26,0-2.46.85-4.39,2.58-5.78,1.73-1.46,4.06-2.18,6.98-2.18,3.32,0,6.69,1.1,10.08,3.29l3.38-5.39c-4.32-3.26-9.07-4.89-14.25-4.89h0ZM582.91,450.86l23.33,21.74c-4.79,5.38-10.36,8.08-16.74,8.08-4.59,0-8.34-1.44-11.26-4.3-2.92-2.92-4.39-6.64-4.39-11.16,0-6.25,3.01-11.04,9.06-14.36h0Z"/>
    <path id="path3011" class="cls-1" d="M688.09,422.95h-25.03v26.51h24.53v7.08h-24.53v29.23h-9.67v-69.8h34.7v6.98"/>
    <path id="path3013" class="cls-1" d="M727.96,439.7l-4.29,6.08c-3.32-1.66-5.55-2.49-6.68-2.49-3.39,0-5.72,2.06-6.98,6.18-.86,2.86-1.3,7.08-1.3,12.66v23.63h-8.97v-49.85h8.97v6.98l2.09-3.19c2.19-3.32,4.92-4.99,8.18-4.99,2.73,0,5.72,1.66,8.97,4.99"/>
    <path id="path3015" class="cls-1" d="M771.1,485.77h-9.67c-.66-1.79-1.03-2.89-1.1-3.29-.2-.86-.33-2.26-.4-4.19-4.25,5.78-9.64,8.67-16.15,8.67-3.99,0-7.31-1.3-9.97-3.89-2.66-2.59-3.99-5.98-3.99-10.17,0-6.25,3.42-11.13,10.27-14.66,3.32-1.66,7.15-3.09,11.47-4.29,3.19-.86,5.98-1.5,8.38-1.89-.8-7.71-4.39-11.57-10.77-11.57-4.12,0-8.34,1.79-12.66,5.38l-3.49-4.49c4.85-4.45,10.77-6.68,17.75-6.68,7.05,0,12.06,2.09,15.06,6.28,1.2,1.73,1.99,3.39,2.39,4.99.47,1.99.7,5.12.7,9.37v14.46c0,4.52.13,7.74.4,9.67.27,1.86.86,3.96,1.79,6.28M760.23,462.83l-.1-4.89c-.2,0-2.19.43-5.98,1.3-10.04,2.26-15.06,6.41-15.06,12.46,0,2.53.7,4.55,2.09,6.08,1.46,1.46,3.32,2.19,5.58,2.19,3.12,0,5.88-1.06,8.28-3.19,1.99-1.79,3.32-3.82,3.99-6.08.86-2.86,1.26-5.48,1.2-7.88"/>
    <path id="path3017" class="cls-1" d="M825.44,485.77h-8.87v-27.92c0-5.38-.6-9.17-1.79-11.37-1.86-3.46-5.15-5.18-9.87-5.18-6.05,0-10.17,2.46-12.36,7.38-.93,2.13-1.4,5.75-1.4,10.87v26.22h-8.97v-49.85h8.97v6.28c4.92-4.99,10.67-7.48,17.25-7.48,8.31,0,13.59,3.32,15.85,9.97.8,2.33,1.2,6.71,1.2,13.16v27.92"/>
    <path id="path3019" class="cls-1" d="M876.65,481.78c-4.79,3.46-10.27,5.18-16.45,5.18-7.38,0-13.43-2.53-18.15-7.58-4.59-4.85-6.88-11.03-6.88-18.55s2.46-13.83,7.38-18.74c4.92-4.92,11.2-7.38,18.84-7.38,5.32,0,10,1.36,14.06,4.09l-3.09,4.99c-3.52-1.86-6.91-2.79-10.17-2.79-5.25,0-9.47,1.76-12.66,5.28-3.19,3.52-4.79,8.18-4.79,13.96,0,6.25,1.56,11.23,4.69,14.96,3.19,3.66,7.44,5.48,12.76,5.48,4.12,0,8.11-1.3,11.96-3.89l2.49,4.99"/>
    <path id="path3021" class="cls-1" d="M895.87,420.16c0,1.53-.57,2.86-1.7,3.99-1.13,1.13-2.46,1.7-3.99,1.7-1.53,0-2.86-.53-3.99-1.6-1.13-1.13-1.7-2.43-1.7-3.89,0-3.92,1.93-5.88,5.78-5.88,1.6,0,2.92.53,3.99,1.6,1.06,1.06,1.6,2.43,1.6,4.09M894.68,485.77h-8.97v-49.85h8.97v49.85"/>
    <path id="path3023" class="cls-1" d="M937.8,472.41c0,4.32-1.56,7.84-4.69,10.57-3.12,2.66-7.18,3.99-12.16,3.99-5.65,0-10.93-2.13-15.85-6.38l4.39-4.99c3.66,3.39,7.21,5.09,10.67,5.09,2.53,0,4.55-.63,6.08-1.89,1.53-1.33,2.29-3.12,2.29-5.38,0-1.93-.53-3.52-1.6-4.79-1-1.33-3.26-3.26-6.78-5.78-4.05-2.92-6.68-5.02-7.88-6.28-2.66-2.73-3.99-5.65-3.99-8.77,0-3.72,1.5-6.81,4.49-9.27,3.06-2.53,6.81-3.79,11.27-3.79,4.72,0,9.04,1.5,12.96,4.49l-3.59,4.59c-2.73-2.13-5.75-3.19-9.07-3.19-2.13,0-3.89.53-5.28,1.6-1.4,1-2.09,2.33-2.09,3.99,0,2.26,1.99,4.82,5.98,7.68,6.12,4.39,10.1,7.78,11.96,10.17,1.93,2.33,2.89,5.12,2.89,8.38"/>
  </g>
  <g id="g3190">
    <path id="path3026-3" class="cls-1" d="M313.09,523.47h-11.35v31.92h-4.97v-31.92h-11.3v-3.55h27.61v3.55"/>
    <path id="path3028-8" class="cls-1" d="M330.46,555.39h-4.91c-.34-.91-.52-1.47-.56-1.67-.1-.44-.17-1.15-.2-2.13-2.16,2.94-4.9,4.41-8.21,4.41-2.03,0-3.72-.66-5.07-1.98-1.35-1.32-2.03-3.04-2.03-5.17,0-3.18,1.74-6.39,5.22-8.18,1.69-.84,3.49-1.64,5.68-2.25,1.62-.44,3.33-.91,4.55-1.11-.41-3.92-2.38-4.93-5.62-4.93-2.09,0-4.24.91-6.43,2.74l-1.77-2.28c2.47-2.26,5.47-3.39,9.02-3.39s6.13,1.06,7.65,3.19c.61.88,1.01,1.72,1.22,2.53.24,1.01.35,2.6.35,4.76v7.35c0,2.3.07,3.94.2,4.91.14.95.44,2.01.91,3.19M324.94,543.74l.24-2.77c-.1,0-1.7,0-3.62.44-5.1,1.15-7.36,3.77-7.36,6.84,0,1.28.35,2.31,1.06,3.09.74.74,1.69,1.11,2.84,1.11,1.59,0,2.99-.54,4.21-1.62,1.01-.91,1.69-1.94,2.03-3.09.44-1.45.64-2.79.61-4"/>
    <path id="path3030-5" class="cls-1" d="M357.4,530.56l-12.67,28.58c-1.42,3.21-2.79,5.4-4.1,6.59-1.76,1.55-4.19,2.33-7.3,2.33h-1.06v-3.39h1.11c1.76,0,3.07-.24,3.95-.71.88-.44,1.71-1.32,2.48-2.63.51-.84,1.69-3.29,3.55-7.35l-10.29-23.1,4.46-1.22,7.8,19.61,8.31-19.61,3.75.91"/>
    <path id="path3032-2" class="cls-1" d="M365.66,555.39h-4.56v-37.19h4.56v37.19"/>
    <path id="path3034-2" class="cls-1" d="M396.05,542.52c0,3.92-1.17,7.14-3.5,9.68-2.3,2.53-5.25,3.8-8.87,3.8s-6.64-1.25-8.97-3.75c-2.33-2.5-3.5-5.73-3.5-9.68s1.17-7.04,3.5-9.47c2.33-2.43,5.35-3.65,9.07-3.65,3.48,0,6.38,1.25,8.71,3.75,2.36,2.5,3.55,5.61,3.55,9.32M391.19,542.52c0-3.07-.69-5.49-2.08-7.25-1.35-1.76-3.21-2.63-5.57-2.63-2.3,0-4.12.9-5.47,2.69-1.32,1.76-1.98,4.17-1.98,7.25,0,3.24.66,5.76,1.98,7.55,1.35,1.79,3.24,2.69,5.67,2.69s4.15-.91,5.47-2.74,1.98-4.34,1.98-7.55"/>
    <path id="path3036-2" class="cls-1" d="M415.34,531.98l-2.18,3.09c-1.69-.84-2.82-1.27-3.39-1.27-1.72,0-2.9,1.05-3.55,3.14-.44,1.45-.66,3.6-.66,6.43v12.01h-4.56v-25.33h4.56v3.55l1.06-1.62c1.11-1.69,2.5-2.53,4.15-2.53,1.38,0,2.9.84,4.56,2.53"/>
    <path id="path3039-7" class="cls-1" d="M439.04,519.17c-2.67,0-4.92.76-6.74,2.28-1.79,1.49-2.68,3.36-2.68,5.62,0,2.53,1.54,5.16,4.61,7.9-5.07,2.67-7.61,6.08-7.61,10.24,0,3.07,1.17,5.63,3.5,7.65,2.36,1.99,5.32,2.98,8.86,2.98,4.86,0,8.82-1.77,11.86-5.31l5.78,5.31,4.5-2.33-7.8-6.59c1.11-2.3,1.67-4.59,1.67-6.89,0-1.17-.14-2.28-.4-3.36h-3.87c.44,1.33.66,2.7.66,4.12,0,1.32-.25,2.55-.76,3.69l-10.79-9.98c-3.51-3.24-5.27-5.83-5.27-7.75,0-1.25.43-2.23,1.31-2.94.88-.74,2.06-1.11,3.55-1.11,1.69,0,3.4.56,5.12,1.67l1.72-2.74c-2.2-1.66-4.61-2.48-7.24-2.48h0ZM436.5,537.36l11.86,11.05c-2.43,2.74-5.27,4.1-8.51,4.1-2.33,0-4.24-.73-5.72-2.18-1.49-1.49-2.23-3.37-2.23-5.67,0-3.18,1.53-5.61,4.6-7.3h0Z"/>
    <path id="path3011-3" class="cls-1" d="M489.37,523.18h-12.72v13.47h12.46v3.6h-12.46v14.85h-4.91v-35.47h17.63v3.55"/>
    <path id="path3013-4" class="cls-1" d="M509.63,531.7l-2.18,3.09c-1.69-.84-2.82-1.27-3.39-1.27-1.72,0-2.9,1.05-3.55,3.14-.44,1.45-.66,3.6-.66,6.43v12.01h-4.56v-25.33h4.56v3.55l1.06-1.62c1.11-1.69,2.5-2.53,4.15-2.53,1.38,0,2.9.84,4.56,2.53"/>
    <path id="path3015-6" class="cls-1" d="M531.56,555.1h-4.91c-.34-.91-.52-1.47-.56-1.67-.1-.44-.17-1.15-.2-2.13-2.16,2.94-4.9,4.41-8.21,4.41-2.03,0-3.72-.66-5.07-1.98s-2.03-3.04-2.03-5.17c0-3.18,1.74-5.66,5.22-7.45,1.69-.84,3.63-1.57,5.83-2.18,1.62-.44,3.04-.76,4.26-.96-.41-3.92-2.23-5.88-5.47-5.88-2.09,0-4.24.91-6.43,2.74l-1.77-2.28c2.47-2.26,5.47-3.39,9.02-3.39,3.58,0,6.13,1.06,7.65,3.19.61.88,1.01,1.72,1.22,2.53.24,1.01.35,2.6.35,4.76v7.35c0,2.3.07,3.94.2,4.91.14.95.44,2.01.91,3.19M526.03,543.45l-.05-2.48c-.1,0-1.11.22-3.04.66-5.1,1.15-7.65,3.26-7.65,6.33,0,1.28.35,2.31,1.06,3.09.74.74,1.69,1.11,2.84,1.11,1.59,0,2.99-.54,4.21-1.62,1.01-.91,1.69-1.94,2.03-3.09.44-1.45.64-2.79.61-4"/>
    <path id="path3017-3" class="cls-1" d="M559.17,555.1h-4.51v-14.19c0-2.74-.3-4.66-.91-5.78-.95-1.76-2.62-2.63-5.02-2.63-3.07,0-5.17,1.25-6.28,3.75-.47,1.08-.71,2.92-.71,5.52v13.33h-4.56v-25.33h4.56v3.19c2.5-2.53,5.42-3.8,8.77-3.8,4.22,0,6.91,1.69,8.06,5.07.41,1.18.61,3.41.61,6.69v14.19"/>
    <path id="path3019-6" class="cls-1" d="M585.19,553.08c-2.43,1.76-5.22,2.63-8.36,2.63-3.75,0-6.82-1.28-9.22-3.85-2.33-2.47-3.5-5.61-3.5-9.42s1.25-7.03,3.75-9.53,5.69-3.75,9.58-3.75c2.7,0,5.08.69,7.14,2.08l-1.57,2.53c-1.79-.95-3.51-1.42-5.17-1.42-2.67,0-4.81.9-6.43,2.69-1.62,1.79-2.43,4.15-2.43,7.09,0,3.18.79,5.71,2.38,7.6,1.62,1.86,3.78,2.79,6.49,2.79,2.09,0,4.12-.66,6.08-1.98l1.27,2.53"/>
    <path id="path3021-3" class="cls-1" d="M594.96,521.77c0,.78-.29,1.45-.86,2.03-.57.57-1.25.86-2.03.86-.78,0-1.45-.27-2.03-.81-.57-.57-.86-1.23-.86-1.98,0-1.99.98-2.99,2.94-2.99.81,0,1.49.27,2.03.81.54.54.81,1.23.81,2.08M594.35,555.1h-4.56v-25.33h4.56v25.33"/>
    <path id="path3023-3" class="cls-1" d="M616.27,548.32c0,2.2-.79,3.99-2.38,5.37-1.59,1.35-3.65,2.03-6.18,2.03-2.87,0-5.56-1.08-8.06-3.24l2.23-2.53c1.86,1.72,3.66,2.58,5.42,2.58,1.28,0,2.31-.32,3.09-.96.78-.68,1.17-1.59,1.17-2.74,0-.98-.27-1.79-.81-2.43-.51-.68-1.66-1.66-3.45-2.94-2.06-1.49-3.39-2.55-4-3.19-1.35-1.38-2.03-2.87-2.03-4.46,0-1.89.76-3.46,2.28-4.71,1.55-1.28,3.46-1.93,5.73-1.93,2.4,0,4.59.76,6.59,2.28l-1.82,2.33c-1.39-1.08-2.92-1.62-4.61-1.62-1.08,0-1.98.27-2.69.81-.71.51-1.06,1.18-1.06,2.03,0,1.15,1.01,2.45,3.04,3.9,3.11,2.23,5.13,3.95,6.08,5.17.98,1.18,1.47,2.6,1.47,4.26"/>
    <path id="path3114" class="cls-1" d="M661.73,553.45c-4.49,1.6-8.66,2.39-12.52,2.39-5.35,0-9.78-1.66-13.27-4.99-3.46-3.36-5.19-7.63-5.19-12.82s1.83-9.69,5.49-13.12c3.69-3.46,8.36-5.19,14.01-5.19,4.06,0,7.8,1.11,11.22,3.34l-2.04,2.89c-2.93-1.83-5.94-2.74-9.03-2.74-4.29,0-7.75,1.3-10.37,3.89-2.63,2.59-3.94,6.02-3.94,10.27,0,4.46,1.31,8.06,3.94,10.82,2.63,2.76,6.08,4.14,10.37,4.14,2.06,0,4.21-.42,6.43-1.25v-11.82h4.89v14.16"/>
    <path id="path3116" class="cls-1" d="M682.83,532.2l-2.14,3.04c-1.66-.83-2.78-1.25-3.34-1.25-1.7,0-2.86,1.03-3.49,3.09-.43,1.43-.72,3.54-.65,6.33v11.82h-4.49v-24.94h4.49v3.49l1.05-1.6c1.1-1.66,2.46-2.49,4.09-2.49,1.36,0,2.86.83,4.49,2.49"/>
    <path id="path3118" class="cls-1" d="M708.79,542.57c0,3.86-1.15,7.03-3.44,9.53-2.26,2.49-5.17,3.74-8.73,3.74s-6.53-1.23-8.83-3.69c-2.29-2.46-3.44-5.64-3.44-9.53s1.15-6.93,3.44-9.33c2.29-2.39,5.27-3.59,8.93-3.59,3.42,0,6.28,1.23,8.58,3.69,2.33,2.46,3.49,5.52,3.49,9.18M704,542.57c0-3.03-.68-5.4-2.04-7.13-1.33-1.73-3.16-2.59-5.49-2.59s-4.06.88-5.39,2.64c-1.3,1.73-1.95,4.11-1.95,7.13,0,3.19.65,5.67,1.95,7.43,1.33,1.76,3.19,2.64,5.59,2.64s4.09-.9,5.39-2.69c1.3-1.8,1.95-4.27,1.95-7.43"/>
    <path id="path3120" class="cls-1" d="M736,555.24h-4.44v-3.14c-2.49,2.49-5.37,3.74-8.63,3.74-4.19,0-6.85-1.66-7.98-4.99-.4-1.2-.6-3.39-.6-6.58v-13.96h4.49v13.96c0,2.69.3,4.59.9,5.69.93,1.73,2.58,2.59,4.94,2.59,2.99,0,5.04-1.25,6.13-3.74.5-1.13.75-2.96.75-5.49v-13.02h4.44v24.94"/>
    <path id="path3122" class="cls-1" d="M766.94,542.23c0,3.92-1.15,7.18-3.44,9.78-2.26,2.56-5.12,3.84-8.58,3.84-3.03,0-5.67-1.31-7.93-3.94v15.81h-4.34v-37.41h4.34v3.79c2.13-2.93,5.07-4.39,8.83-4.39,3.32,0,6,1.16,8.03,3.49,2.06,2.29,3.09,5.3,3.09,9.03M762.16,542.42c0-2.96-.67-5.29-2-6.98-1.33-1.73-3.13-2.59-5.39-2.59s-4.26.93-5.69,2.79c-1.4,1.86-2.09,4.36-2.09,7.48,0,2.96.7,5.3,2.09,7.03,1.4,1.7,3.32,2.54,5.79,2.54s4.39-1.13,5.69-3.39c1.06-1.86,1.6-4.16,1.6-6.88"/>
  </g>
</svg>